<?xml version="1.0" encoding="UTF-8"?>
<svg version="1.1" viewBox="0 0 2000 944" width="1280" height="1280" xmlns="http://www.w3.org/2000/svg">
<path transform="translate(0)" d="m0 0h2e3v886h-66v-31h36v-824h-1940v824h94v31h-124z" fill="#fff"/>
<path transform="translate(156,305)" d="m0 0h152l22 3 19 5 15 6 13 7 14 11 11 12 9 14 7 15 5 18 3 18 1 14v81l-2 22-5 22-6 15-7 13-9 12-12 12-10 7-17 9-18 6-20 4-20 2h-145zm80 67v193h57l16-3 14-7 8-7 7-11 5-13 2-12v-87l-3-16-5-12-7-9-8-7-12-6-15-3z" fill="#fff"/>
<path transform="translate(1016,305)" d="m0 0h152l27 4 20 6 17 8 14 10 15 15 9 14 8 17 5 18 3 20v103l-3 20-5 18-6 14-10 16-14 15-14 10-16 8-17 6-20 4-20 2h-145zm79 67v193h58l15-3 10-4 9-7 8-9 5-10 4-15 1-9v-80l-2-14-4-12-6-10-7-8-10-6-10-4-11-2z" fill="#fff"/>
<path transform="translate(566,373)" d="m0 0h34l20 3 17 5 14 6 12 8 10 9 9 10 9 16 5 13 4 18 1 9v41l-3 21h-160l4 17 5 8 5 5 9 6 15 5 21 3h27l26-3 22-5 25-8-1 16-5 44-10 5-21 7-23 5-18 2h-44l-22-3-17-4-20-8-14-9-10-9-9-10-8-13-6-14-5-19-2-16v-57l3-21 6-20 10-19 11-13 10-9 11-7 15-7 17-5zm8 59-13 3-10 6-7 9-4 9-2 9v15h90v-11l-3-15-6-11-9-8-9-4-10-2z" fill="#fff"/>
<path transform="translate(1425,373)" d="m0 0h34l21 3 20 6 16 8 13 10 8 8 9 13 7 14 5 17 3 21v33l-3 26h-160l3 15 4 8 6 7 10 6 14 5 22 3h27l26-3 25-6 18-6h4l-4 40-2 18-8 5-16 6-25 6-23 3h-44l-23-3-19-5-15-6-14-8-14-12-10-13-7-12-6-16-4-18-1-8v-65l3-18 5-17 8-16 9-13 12-12 15-10 16-7 20-5zm9 59-13 3-10 6-7 8-5 12-2 12v10h91l-1-17-4-13-6-9-9-7-11-4-6-1z" fill="#fff"/>
<path transform="translate(1583,380)" d="m0 0h85l8 15 11 23 16 33 7 15v2l5-1 19-39 11-23 12-25h85l-2 5-12 23-12 22-17 32-12 22-9 17 2 6 15 29 23 45 17 33 9 17v2h-85l-8-16-16-33-13-28-7-14v-2l-4 1-21 43-13 28-10 20-1 1h-84l1-5 20-39 18-35 20-39 6-11-1-6-15-28-13-24-14-26-13-24z" fill="#fff"/>
<path transform="translate(722,380)" d="m0 0h81l4 15 41 177 1 9h6l2-12 23-100 20-88 1-1h81l-4 17-21 80-20 75-21 79-1 2h-126l-3-9-22-82-24-90-18-67z" fill="#fff"/>
<path transform="translate(501,832)" d="m0 0h12l8 3 6 7 2 2 6-7 7-4 4-1h11l8 3 5 5 4 8 1 4 1 31 1 14 11 2-1 10-37 1-1-1v-9l8-2 1-3v-39l-3-8-5-3-9 1-5 5-4 9v38l11 1-1 10-37 1-1-3v-7l10-2v-36l-2-11-2-5-4-1h-7l-6 4-4 6-2 8v35l11 1v9l-1 1-38 1-1-1v-9l11-2v-53l-12-1 1-10h23l2 2 2 7 7-7z" fill="#fff"/>
<path transform="translate(631,801)" d="m0 0h49l10 3 9 6 5 8 1 4v10l-4 10-7 7-8 4 12 5 7 6 4 8 1 11-2 9-6 9-9 6-7 2-55 1-1-1v-9l10-2 1-1 1-10v-64l-1-11-11-1zm30 10-1 2v85l3 1h14l7-3 6-7 1-2v-15l-4-7-8-5-4-1h-9l1-11h7l8-4 4-5 2-5v-10l-4-8-5-4-4-1z" fill="#fff"/>
<path transform="translate(1173,801)" d="m0 0h49l10 3 9 6 4 6 2 7v7l-3 10-8 9-6 3h-3v2l7 1 10 6 6 9 1 3v15l-4 9-7 7-8 4-4 1-55 1-1-1v-9l11-2v-81l-1-4-10-2v-9zm29 10-1 11v68l1 8 3 1h14l8-4 5-6 1-3v-13l-3-6-7-6-6-2h-9l1-11h7l8-4 4-5 2-7v-7l-3-8-5-4-5-2z" fill="#fff"/>
<path transform="translate(840,832)" d="m0 0h13l11 3 16-3 4 1v11l-10 1 3 8v13l-4 9-6 7-8 4-4 1h-17l-2-1-2 6v2l41 6 5 3 3 4 1 4v8l-3 8-7 8-10 6-11 3h-19l-10-3-7-5-4-9v-7l8-9 4-4-4-4-1-2v-8l8-9-5-5-5-7-2-7v-10l4-11 7-7 9-4zm4 9-6 3-3 4-1 3v17l3 6 3 3 3 1h8l5-3 3-6 1-5v-9l-3-9-4-4zm-10 69-5 8 1 8 5 5 4 2 13 1 8-2 6-4 2-3v-8l-2-2z" fill="#fff"/>
<path transform="translate(215,801)" d="m0 0h70l3 3 1 21-10 1-4-12-4-1-27-1-1 38 24-1 1-10h9v31l-8 1-1-1-1-9-24-1 1 38 15 1v8l-1 2-43 1-1-1v-9l11-2v-82l-1-3-10-2v-9z" fill="#fff"/>
<path transform="translate(1652,832)" d="m0 0h12l9 3 7 8 3 10 1 31 1 13 11 2-1 10-37 1-1-1v-9l8-2 1-2v-40l-3-7-3-3-3-1h-7l-7 4-5 10-1 39 12 1-1 10-39 1-1-2v-8l11-2v-53l-11-1-1-2 1-8h23l3 3 1 7 6-7 8-4z" fill="#fff"/>
<path transform="translate(723,834)" d="m0 0h25l2 2v51l4 8 6 2 8-1 6-5 3-6 1-5v-35l-11-1v-10h27l2 2v62l10 1v10h-24l-2-10-5 6-7 4-4 1h-12l-9-3-7-8-3-10-1-34-1-10-9-1v-8z" fill="#fff"/>
<path transform="translate(1551,832)" d="m0 0h17l9 3 5 4 5 10 1 5 1 44 10 1v10h-24l-2-9-9 8-6 2h-14l-10-5-4-6-1-3v-12l3-6 7-6 9-3 18-3h6l-2-16-4-5-2-1h-11l-7 1-1 13-3 1h-7l-1-2-1-21 5-2zm17 43-16 3-5 4-1 2v7l3 5 4 2 9-1 7-5 3-6v-11z" fill="#fff"/>
<path transform="translate(1083,832)" d="m0 0h14l10 3 9 6 6 9 3 9 1 7v11l-4 16-6 8-6 5-10 4-6 1h-8l-10-2-8-4-7-7-5-10-2-9v-15l3-12 6-10 8-6 7-3zm2 11-6 3-4 6-3 12v15l3 11 4 6 4 3 3 1h8l6-3 4-5 3-8 1-7v-11l-3-14-7-8-3-1z" fill="#fff"/>
<path transform="translate(402,832)" d="m0 0h15l10 3 9 6 6 9 3 10 1 13-2 14-6 12-8 7-10 4-6 1h-8l-10-2-8-4-8-8-4-8-2-9v-18l4-13 7-9 7-5zm2 11-7 5-4 9-1 6v17l4 13 7 6 3 1h7l7-3 5-7 2-7 1-14-2-14-5-8-6-4z" fill="#fff"/>
<path transform="translate(1807,832)" d="m0 0h14l11 4 8 9 4 12v13l-2 4h-44l4 15 5 6 4 2 7 1 12-2 9-3 4 6v3l-14 7-10 2h-8l-12-3-10-7-6-10-3-10v-20l4-12 6-8 6-5zm2 10-6 4-4 9-1 9h12l15-1 1-1v-9l-4-8-5-3z" fill="#fff"/>
<path transform="translate(917,832)" d="m0 0h16l13 3v13l-1 10h-9l-1-1-2-13-5-1h-9l-5 3-1 6 5 5 16 8 10 7 5 7 1 4v10l-4 9-8 6-7 2h-19l-15-5 1-22h11l1 11 4 4 3 1h11l4-2 1-2v-7l-5-5-21-11-5-4-4-7-1-9 2-8 7-8 6-3z" fill="#fff"/>
<path transform="translate(1734,832)" d="m0 0h15l16 4 1 1-1 20-1 2h-10l-1-1-1-12-9-3-10 2-6 8-2 7v21l3 9 5 5 4 2h14l12-4 4 6-1 4-12 6-9 2h-8l-10-2-8-4-8-8-4-9-2-9v-15l3-12 5-8 7-7 9-4z" fill="#fff"/>
<path transform="translate(1384,794)" d="m0 0h26l3 3v101l11 1-1 10-39 1-1-10 11-3 1-8v-74l-1-10-9-1-2-1v-7z" fill="#fff"/>
<path transform="translate(1430,794)" d="m0 0h27l2 2v102l11 1v9l-1 1-38 1-1-1v-9l11-2v-87l-1-5-11-3z" fill="#fff"/>
<path transform="translate(347,832)" d="m0 0h9l7 2-2 27h-10l-1-1-1-15-10 3-5 6-2 5v38l14 2-1 10-42 1-1-3v-7l11-2v-53l-11-1v-10h23l3 3 1 7 6-7 8-4z" fill="#fff"/>
<path transform="translate(1311,832)" d="m0 0h9l7 2-2 27h-10l-1-1-1-15-10 3-5 6-2 5v38l14 2-1 10-42 1-1-3v-7l11-2v-53l-11-1v-10h23l3 3 1 7 6-7 8-4z" fill="#fff"/>
<path transform="translate(1011,817)" d="m0 0h8v17h21l-1 10h-20l1 48 2 5 7 1 8-3 3-1 4 7v2l-13 7-4 1h-11l-8-4-4-8-1-4v-51h-11l-1-1v-8l13-5z" fill="#fff"/>
<path transform="translate(1337,834)" d="m0 0h27l3 3-1 61 12 1-1 10-39 1-1-2v-8l11-2v-53l-11-1-1-2z" fill="#fff"/>
<path transform="translate(1479,834)" d="m0 0h27l2 2v62l11 1v10l-39 1-1-1v-9l11-2v-53l-11-1-1-3z" fill="#fff"/>
<path transform="translate(1350,800)" d="m0 0h9l5 5v10l-4 5-8 1-5-3-2-4v-8l3-5z" fill="#fff"/>
<path transform="translate(1492,800)" d="m0 0h9l4 4 1 2v8l-3 5-4 2-8-1-4-5v-9l3-5z" fill="#fff"/>
</svg>
